<?xml version="1.0" encoding="UTF-8"?>
<!-- Uploaded to: SVG Find, www.svgrepo.com, Generator: SVG Find Mixer Tools -->
<svg fill="#000000" width="60px" height="60px" version="1.1" viewBox="144 144 512 512" xmlns="http://www.w3.org/2000/svg">
 <g>
  <path d="m400 190.08c-115.69 0-209.92 94.234-209.92 209.92s94.234 209.92 209.92 209.92 209.92-94.234 209.92-209.92-94.234-209.92-209.92-209.92zm0 41.984c92.996 0 167.94 74.938 167.94 167.94 0 92.996-74.938 167.94-167.94 167.94-92.996 0-167.94-74.938-167.94-167.94 0-92.996 74.938-167.94 167.94-167.94z"/>
  <path d="m322.18 322.17c-8.1953 8.1992-8.1953 21.488 0 29.684l48.133 48.133-48.133 48.133c-8.1953 8.1992-8.1953 21.488 0 29.684 8.1992 8.1953 21.488 8.1953 29.684 0l48.137-48.129 48.133 48.133c8.1992 8.1953 21.488 8.1953 29.684 0 8.1953-8.1992 8.1953-21.488 0-29.684l-48.133-48.133 48.133-48.133c8.1953-8.1992 8.1953-21.488 0-29.684-8.832-8.7344-22.391-7.3867-29.684 0l-48.133 48.129-48.133-48.133c-9.0352-9.125-21.137-7.8594-29.684 0z"/>
 </g>
</svg>