<?xml version="1.0" encoding="UTF-8"?>
<!-- Uploaded to: SVG Find, www.svgrepo.com, Generator: SVG Find Mixer Tools -->
<svg fill="#000000" width="800px" height="800px" version="1.1" viewBox="144 144 512 512" xmlns="http://www.w3.org/2000/svg">
 <path d="m253.05 211.07c-34.527 0-62.977 28.449-62.977 62.977v251.91c0 34.527 28.449 62.977 62.977 62.977h293.89c34.527 0 62.977-28.449 62.977-62.977v-190.32c0-33.77-27.812-61.582-61.582-61.582h-135.14l-20.949-50.102-0.003906-0.003906c-1.5977-3.8125-4.2891-7.0664-7.7305-9.3594-3.4453-2.2891-7.4883-3.5117-11.621-3.5117zm0 41.984h105.86l20.91 50.062v-0.003907c1.5938 3.8281 4.2891 7.0977 7.7383 9.3945 3.4531 2.3008 7.5078 3.5234 11.652 3.5195h149.12c11.078 0 19.598 8.5195 19.598 19.598v190.32c0 11.992-9 20.992-20.992 20.992h-293.89c-11.992 0-20.992-9-20.992-20.992v-251.91c0-11.992 9-20.992 20.992-20.992z"/>
</svg>