<svg xmlns="http://www.w3.org/2000/svg" x="0px" y="0px" width="64" height="64" viewBox="0 0 64 64">
<path d="M -1 -108.35352 L -1 -43.529297 L 66.058594 -43.529297 L 66.058594 -108.35352 L -1 -108.35352 z M 32 6 C 17.663 6 6 17.663 6 32 C 6 32.694 6.0233125 33.324734 6.0703125 33.927734 L 6.125 34.566406 C 6.125 34.601406 6.1278594 34.635922 6.1308594 34.669922 C 6.3268594 36.581922 6.740375 38.474109 7.359375 40.287109 C 7.5052403 40.723523 7.6626629 41.154816 7.8300781 41.580078 L 6.4648438 42.945312 L 3.4882812 45.919922 C 2.3742813 47.033922 1.9952656 48.705875 2.5722656 50.171875 C 3.4902656 52.504875 4.9958281 54.827859 7.0488281 56.880859 C 8.7918281 58.623859 10.729078 59.971438 12.705078 60.898438 C 13.226078 61.143437 13.780031 61.261719 14.332031 61.261719 C 15.375031 61.261719 16.406781 60.843219 17.175781 60.074219 L 21.472656 55.777344 C 21.879778 55.957108 22.292375 56.129115 22.710938 56.289062 C 24.834937 57.102062 27.060328 57.633094 29.361328 57.871094 L 30.074219 57.929688 C 30.675219 57.976688 31.306 58 32 58 C 35.055 58 38.045625 57.474453 40.890625 56.439453 C 41.410625 56.251453 41.677281 55.677203 41.488281 55.158203 C 41.300281 54.639203 40.723031 54.371547 40.207031 54.560547 C 37.581031 55.515547 34.82 56 32 56 C 31.358 56 30.779375 55.978547 30.234375 55.935547 L 29.535156 55.882812 L 29.535156 55.880859 C 27.441156 55.663859 25.385781 55.172875 23.425781 54.421875 C 16.697781 51.851875 11.532906 46.468438 9.2539062 39.648438 C 8.6829063 37.972437 8.3000938 36.227562 8.1210938 34.476562 L 8.0644531 33.767578 C 8.0214531 33.220578 8 32.642 8 32 C 8 18.767 18.767 8 32 8 C 45.233 8 56 18.767 56 32 C 56 33.659 55.830094 35.314922 55.496094 36.919922 C 55.382094 37.460922 55.728531 37.991516 56.269531 38.103516 C 56.814531 38.217516 57.341125 37.868125 57.453125 37.328125 C 57.816125 35.588125 58 33.796 58 32 C 58 17.663 46.337 6 32 6 z M 32 10.808594 C 20.314 10.808594 10.808594 20.315 10.808594 32 C 10.808594 43.685 20.314 53.191406 32 53.191406 C 43.686 53.191406 53.191406 43.686 53.191406 32 C 53.191406 20.314 43.686 10.808594 32 10.808594 z M 29.599609 12.974609 C 28.803395 13.671435 28.273147 14.543858 28.160156 15.539062 C 27.848156 18.283062 30.720219 20.862781 34.574219 21.300781 C 34.951219 21.343781 35.323453 21.363281 35.689453 21.363281 C 39.059453 21.363281 41.834234 19.6 42.115234 17.125 C 42.17281 16.618627 42.121951 16.117483 41.976562 15.634766 C 47.491891 19.009913 51.191406 25.073507 51.191406 32 C 51.191406 42.583 42.583 51.191406 32 51.191406 C 28.875237 51.191406 25.932051 50.425976 23.322266 49.095703 L 27.076172 45.34375 C 28.388172 46.25275 30.120672 46.815766 31.888672 46.884766 C 34.301672 46.975766 36.394125 46.179625 37.828125 44.640625 C 39.282125 43.079625 40.151391 41.139828 40.275391 39.173828 C 40.405391 37.133828 39.725328 35.309063 38.361328 34.039062 C 37.353328 33.100062 36.325781 32.4845 35.300781 32.1875 C 34.970781 30.9725 34.319875 29.86825 33.421875 29.03125 C 32.309875 27.99525 30.898406 27.458391 29.441406 27.400391 C 29.226406 26.089391 28.623687 24.934687 27.679688 24.054688 C 26.370687 22.836687 24.578672 22.308312 22.638672 22.570312 C 20.770672 22.822313 18.975938 23.783391 17.585938 25.275391 C 14.759938 28.310391 16.463047 34.185844 18.623047 36.964844 L 14.90625 40.683594 C 13.574243 38.072469 12.808594 35.126938 12.808594 32 C 12.808594 22.231701 20.148132 14.161755 29.599609 12.974609 z M 34.587891 13.300781 C 34.880891 13.300781 35.179562 13.317563 35.476562 13.351562 C 38.417563 13.685562 40.288906 15.488438 40.128906 16.898438 C 39.971906 18.280438 38.021453 19.363281 35.689453 19.363281 C 35.396453 19.363281 35.097781 19.3465 34.800781 19.3125 C 33.367781 19.1495 32.033578 18.597875 31.142578 17.796875 C 30.727578 17.423875 30.046437 16.664625 30.148438 15.765625 C 30.304438 14.382625 32.254891 13.300781 34.587891 13.300781 z M 23.880859 24.511719 C 24.826141 24.569891 25.668703 24.913375 26.314453 25.515625 C 26.901453 26.062625 27.288266 26.787141 27.447266 27.619141 C 26.165266 27.953141 24.937313 28.659609 23.945312 29.724609 C 23.517312 30.184609 23.154578 30.724156 22.892578 31.285156 C 22.347578 32.460156 22.731078 33.805641 23.830078 34.556641 C 24.900078 35.287641 26.260781 35.163031 27.175781 34.207031 C 28.461781 32.827031 29.268563 31.134391 29.476562 29.400391 C 30.428562 29.462391 31.338594 29.822187 32.058594 30.492188 C 32.516594 30.919188 32.882719 31.447156 33.136719 32.035156 C 31.800719 32.241156 30.495578 33.003312 29.267578 34.320312 C 29.118578 34.479312 28.975844 34.649172 28.839844 34.826172 C 27.947844 35.990172 28.022437 37.595422 29.023438 38.732422 C 30.026438 39.872422 31.553219 40.143344 32.824219 39.402344 C 33.168219 39.201344 33.473469 38.959594 33.730469 38.683594 C 34.819469 37.515594 35.446156 36.026688 35.535156 34.429688 C 36.013156 34.680687 36.500047 35.036 36.998047 35.5 C 37.915047 36.355 38.369297 37.612969 38.279297 39.042969 C 38.183297 40.547969 37.504234 42.050438 36.365234 43.273438 C 34.974234 44.766438 33.009797 44.925859 31.966797 44.880859 C 30.322797 44.817859 28.680641 44.200531 27.681641 43.269531 C 27.287641 42.901531 26.672969 42.910969 26.292969 43.292969 L 21.525391 48.060547 C 19.300168 46.604257 17.395931 44.701651 15.939453 42.476562 L 20.705078 37.710938 C 20.897078 37.518937 21.003047 37.256375 20.998047 36.984375 C 20.993047 36.712375 20.879641 36.456484 20.681641 36.271484 C 18.646641 34.374484 17.042828 28.790719 19.048828 26.636719 C 20.124828 25.481719 21.493297 24.740781 22.904297 24.550781 C 23.238547 24.505781 23.565766 24.492328 23.880859 24.511719 z M 27.394531 29.730469 C 27.144531 30.847469 26.560359 31.930375 25.693359 32.859375 C 25.419359 33.145375 25.117938 33.009344 24.960938 32.902344 C 24.852938 32.828344 24.510031 32.551 24.707031 32.125 C 24.881031 31.752 25.124156 31.391984 25.410156 31.083984 C 25.987156 30.463984 26.671531 30.011469 27.394531 29.730469 z M 33.546875 34.005859 C 33.552875 35.252859 33.104531 36.422359 32.269531 37.318359 C 32.145531 37.451359 31.993359 37.569875 31.818359 37.671875 C 31.152359 38.058875 30.624391 37.522156 30.525391 37.410156 C 30.423391 37.294156 29.937734 36.682969 30.427734 36.042969 C 30.525734 35.915969 30.628422 35.794641 30.732422 35.681641 C 31.673422 34.670641 32.601875 34.112859 33.546875 34.005859 z M 54.345703 40.828125 C 53.803703 40.726125 53.279734 41.083953 53.177734 41.626953 C 53.075734 42.169953 53.434562 42.691969 53.976562 42.792969 L 55.941406 43.160156 C 56.034406 43.177156 56.124844 43.181828 56.214844 43.173828 C 56.649844 43.135828 57.026375 42.813281 57.109375 42.363281 C 57.211375 41.820281 56.852547 41.296312 56.310547 41.195312 L 54.345703 40.828125 z M 8.6503906 43.587891 C 10.972391 48.428891 14.779969 52.374906 19.542969 54.878906 L 18.03125 56.390625 C 12.146793 53.505987 8.8228271 48.903954 6.9941406 45.244141 L 7.8789062 44.359375 L 8.6503906 43.587891 z M 52.513672 45.587891 C 52.126766 45.538344 51.729234 45.719172 51.521484 46.076172 C 51.242484 46.554172 51.405813 47.168312 51.882812 47.445312 L 53.609375 48.451172 C 53.794375 48.559172 54.001219 48.602938 54.199219 48.585938 C 54.511219 48.558938 54.808516 48.382797 54.978516 48.091797 C 55.257516 47.613797 55.094187 47.001609 54.617188 46.724609 L 52.890625 45.716797 C 52.771375 45.647047 52.642641 45.604406 52.513672 45.587891 z M 5.5058594 46.732422 C 7.4697329 50.446953 10.84925 54.905048 16.539062 57.882812 L 15.761719 58.660156 C 15.379719 59.042156 14.857031 59.261719 14.332031 59.261719 C 14.059031 59.261719 13.799641 59.203844 13.556641 59.089844 C 11.718641 58.225844 10.003891 57.006797 8.4628906 55.466797 C 6.6738906 53.677797 5.2815937 51.593453 4.4335938 49.439453 C 4.1535937 48.726453 4.3363437 47.901938 4.9023438 47.335938 L 5.5058594 46.732422 z M 49.193359 49.488281 C 48.937859 49.467281 48.676297 49.544656 48.466797 49.722656 C 48.045797 50.080656 47.992609 50.711813 48.349609 51.132812 L 49.642578 52.658203 C 49.860578 52.916203 50.180188 53.034813 50.492188 53.007812 C 50.690188 52.990813 50.887734 52.912438 51.052734 52.773438 C 51.473734 52.415437 51.524969 51.784281 51.167969 51.363281 L 49.876953 49.837891 C 49.698453 49.627891 49.448859 49.509281 49.193359 49.488281 z M 44.761719 52.066406 C 44.631766 52.061188 44.498641 52.082609 44.369141 52.130859 C 43.853141 52.324859 43.593109 52.900969 43.787109 53.417969 L 44.490234 55.289062 C 44.651234 55.717062 45.078672 55.971594 45.513672 55.933594 C 45.603672 55.925594 45.692297 55.906047 45.779297 55.873047 C 46.295297 55.679047 46.555328 55.102938 46.361328 54.585938 L 45.658203 52.712891 C 45.513453 52.325141 45.151578 52.082062 44.761719 52.066406 z"></path>
</svg>